<svg xmlns="http://www.w3.org/2000/svg" viewBox="0 0 1920 1080" width="1920" height="1080" role="img" aria-label="Drop Shoulder hero">
  <defs>
    <linearGradient id="hbg" x1="0" y1="0" x2="0" y2="1">
      <stop offset="0%" stop-color="#14120F"/>
      <stop offset="100%" stop-color="#0A0908"/>
    </linearGradient>
    <linearGradient id="hg" x1="0" y1="0" x2="0" y2="1">
      <stop offset="0%" stop-color="#C9A87C"/>
      <stop offset="100%" stop-color="#8A6549"/>
    </linearGradient>
    <filter id="glow" x="-40%" y="-40%" width="180%" height="180%"><feGaussianBlur stdDeviation="42"/></filter>
  </defs>
  <rect width="1920" height="1080" fill="url(#hbg)"/>
  <circle cx="1540" cy="540" r="320" fill="#C9A87C" opacity="0.10" filter="url(#glow)"/>
  <g transform="translate(1170 210) scale(0.72)">
    <path d="M330 285 L252 240 L182 324 Q 242 348 238 388 L238 700 Q 400 734 562 700 L562 388 Q 558 348 618 324 L548 240 L470 285 Q 400 324 330 285 Z" fill="url(#hg)" stroke="#14110E" stroke-width="2"/><path d="M288 430 L284 660" stroke="#ffffff" stroke-width="5" stroke-linecap="round" opacity="0.08" fill="none"/><path d="M516 430 L520 660" stroke="#ffffff" stroke-width="5" stroke-linecap="round" opacity="0.08" fill="none"/><path d="M330 448 L326 660" stroke="#ffffff" stroke-width="3" stroke-linecap="round" opacity="0.05" fill="none"/><path d="M304 258 Q 400 300 496 258" stroke="undefined" stroke-width="13" fill="none" stroke-linecap="round"/>
  </g>
  <line x1="0" y1="1012" x2="1920" y2="1012" stroke="#C6A15B" stroke-width="1" opacity="0.3"/>
  <text x="88" y="964" font-family="Arial, Helvetica, sans-serif" font-size="17" letter-spacing="9" fill="#BDB5A8" opacity="0.65">DROP SHOULDER</text>
</svg>