<svg xmlns="http://www.w3.org/2000/svg" viewBox="0 0 800 1000" width="800" height="1000" role="img" aria-label="washed drop shoulder tee">
  <defs>
    <linearGradient id="g1" x1="0" y1="0" x2="0" y2="1">
      <stop offset="0%" stop-color="#D9C49A"/>
      <stop offset="100%" stop-color="#A98F68"/>
    </linearGradient>
    <filter id="soft" x="-30%" y="-30%" width="160%" height="160%">
      <feGaussianBlur stdDeviation="26"/>
    </filter>
  </defs>
  <rect width="800" height="1000" fill="#F7F3EA"/>
  <ellipse cx="400" cy="806" rx="196" ry="34" fill="#241E1A" opacity="0.10" filter="url(#soft)"/>
  <g>
    <path d="M330 285 L252 240 L182 324 Q 242 348 238 388 L238 700 Q 400 734 562 700 L562 388 Q 558 348 618 324 L548 240 L470 285 Q 400 324 330 285 Z" fill="undefined" stroke="#14110E" stroke-width="2"/><path d="M288 430 L284 660" stroke="#ffffff" stroke-width="5" stroke-linecap="round" opacity="0.08" fill="none"/><path d="M516 430 L520 660" stroke="#ffffff" stroke-width="5" stroke-linecap="round" opacity="0.08" fill="none"/><path d="M330 448 L326 660" stroke="#ffffff" stroke-width="3" stroke-linecap="round" opacity="0.05" fill="none"/><path d="M304 258 Q 400 300 496 258" stroke="undefined" stroke-width="13" fill="none" stroke-linecap="round"/>
  </g>
  <line x1="330" y1="894" x2="470" y2="894" stroke="#C6A15B" opacity="0.45"/>
  <text x="400" y="928" text-anchor="middle" font-family="Arial, Helvetica, sans-serif" font-size="24" letter-spacing="18" fill="#1C1B19" opacity="0.28">M K L O T H</text>
</svg>